<?xml version="1.0" encoding="UTF-8" standalone="no"?>
<svg width="455px" height="404px" viewBox="0 0 455 404" version="1.1" xmlns="http://www.w3.org/2000/svg" xmlns:xlink="http://www.w3.org/1999/xlink" xmlns:sketch="http://www.bohemiancoding.com/sketch/ns">
    <!-- Generator: Sketch 3.0.3 (7892) - http://www.bohemiancoding.com/sketch -->
    <title>about_icons</title>
    <desc>Created with Sketch.</desc>
    <defs></defs>
    <g id="Welcome" stroke="none" stroke-width="1" fill="none" fill-rule="evenodd" sketch:type="MSPage">
        <g id="about_icons" sketch:type="MSArtboardGroup" fill="#272413">
            <g sketch:type="MSLayerGroup">
                <path d="M298.704634,2.02351334 C298.14184,1.65368561 296.837093,0 272.929066,0 C249.022986,0 243.794261,6.06479139 237.073841,6.06479139 C230.349526,6.06479139 224.373006,0 201.771673,0 C179.174235,0 176,2.75742016 176,2.75742016 L176,3.67719895 C176,4.59506153 176,9.74007413 178.377755,10.7020095 C181.191724,11.8402357 181.789571,20.9498781 182.724315,26.0968069 C183.657112,31.2418195 189.633632,40.9838099 204.760907,40.9991395 C219.890129,41.0183016 226.986394,32.5295098 229.975628,24.6251609 C232.960967,16.7246443 234.456558,11.945627 237.498371,11.945627 C240.546026,11.945627 241.55477,14.3370519 242.489514,16.7246443 C243.422311,19.1122368 247.716292,40.2460706 270.502626,40.9838099 C293.28896,41.7177167 294.406758,17.2745954 294.780656,13.5993126 C295.156501,9.92402989 298.517685,11.0277644 298.704634,8.82029535 C298.891582,6.61665866 299.263533,2.38950865 298.704634,2.02351334 L298.704634,2.02351334 Z M204.824219,36.9985871 C183.808801,36.8148079 184.000031,17.7247488 184.000031,15.7012638 C184.000031,13.6816075 185.338643,2.30070088 204.824219,3.0339031 C214.748278,3.4072045 226.793798,5.05355938 226.985028,11.8457304 C227.176259,18.6398158 225.839638,37.186195 204.824219,36.9985871 L204.824219,36.9985871 Z M272.367245,36.8354859 C251.627298,38.9128661 248.49219,20.7547437 248.013819,14.0430619 C247.541378,7.33138014 259.275302,4.62092972 269.046323,3.35858009 C288.226623,0.881266315 290.659989,11.9808451 290.855686,13.9729314 C291.05336,15.9612268 293.103239,34.7618965 272.367245,36.8354859 L272.367245,36.8354859 Z" id="glasses" sketch:type="MSShapeGroup"></path>
                <path d="M446.999092,158 L414.000908,158 C409.581543,158 406,161.620034 406,166.091265 L406,238.908735 C406,243.376053 409.581543,247 414.000908,247 L446.999092,247 C451.420392,247 455,243.376053 455,238.908735 L455,166.091265 C455,161.620034 451.420392,158 446.999092,158 L446.999092,158 Z M425.333284,163 L435.666716,163 C436.407859,163 437,163.672226 437,164.501088 C437,165.329949 436.407859,166 435.666716,166 L425.333284,166 C424.596011,166 424,165.329949 424,164.501088 C424,163.672226 424.596011,163 425.333284,163 L425.333284,163 Z M430.998991,245 C428.790563,245 427,243.209437 427,241.001009 C427,238.788544 428.790563,237 430.998991,237 C433.211456,237 435,238.788544 435,241.001009 C435,243.209437 433.211456,245 430.998991,245 L430.998991,245 Z M409,171 L450,171 L450,235 L409,235 L409,171 Z" id="iphone" sketch:type="MSShapeGroup"></path>
                <g id="camera" transform="translate(0.000000, 174.000000)" sketch:type="MSShapeGroup">
                    <path d="M40.4990109,16 C31.9414205,16 25,22.9389995 25,31.5 C25,40.0610005 31.9414205,47 40.4990109,47 C49.0605577,47 56,40.0610005 56,31.5 C56,22.9389995 49.0605577,16 40.4990109,16 L40.4990109,16 Z M39.4980731,42 C33.1487936,42 28,36.852069 28,30.5 C28,24.1517842 33.1487936,19 39.4980731,19 C45.8492795,19 51,24.1517842 51,30.5 C51,36.852069 45.8492795,42 39.4980731,42 L39.4980731,42 Z" id="Fill-5"></path>
                    <path d="M75.5606547,7.18811653 L75.5606547,5.81196023 L78.9306983,5.81196023 L78.9306983,0.0567688942 L68.1077498,0.0567688942 L68.1077498,5.81196023 L71.1689057,5.81196023 L71.1689057,7.18420144 L65.7732718,7.17637124 L65.7732718,0.0117452885 L32.4035039,0 L32.4035039,3.87594519 L29.2908667,3.87594519 L29.2908667,2.93240702 L30.9580681,2.93240702 L30.9580681,0.0841745672 L25.596095,0.0841745672 L25.596095,2.93240702 L27.1128127,2.93240702 L27.1128127,3.87594519 L23.3923004,3.87594519 L23.3923004,6.51471999 L16.7333952,6.51471999 L16.7333952,5.24231375 L19.6995087,5.24231375 L19.6995087,0.176179327 L10.1675523,0.176179327 L10.1675523,5.24231375 L12.8663592,5.24231375 L12.8663592,6.51471999 L6.5658429,6.51471999 L6.5658429,5.24231375 L9.53195649,5.24231375 L9.53195649,0.176179327 L0,0.176179327 L0,5.24231375 L2.69682691,5.24231375 L2.69682691,6.51471999 L0,6.51471999 L0,44.446129 C0,48.0636779 2.92255251,51 6.52822197,51 L72.471778,51 C76.0774475,51 79,48.0636779 79,44.446129 L79,7.19203163 L75.5606547,7.18811653 L75.5606547,7.18811653 Z M3.5,11 C2.67303103,11 2,10.3287589 2,9.5 C2,8.67124105 2.67303103,8 3.5,8 C4.32875895,8 5,8.67124105 5,9.5 C5,10.3287589 4.32875895,11 3.5,11 L3.5,11 Z M8.50089552,11 C7.67164179,11 7,10.3287589 7,9.5 C7,8.67124105 7.67164179,8 8.50089552,8 C9.32835821,8 10,8.67124105 10,9.5 C10,10.3287589 9.32835821,11 8.50089552,11 L8.50089552,11 Z M13.5,11 C12.6712411,11 12,10.3287589 12,9.5 C12,8.67124105 12.6712411,8 13.5,8 C14.326969,8 15,8.67124105 15,9.5 C15,10.3287589 14.326969,11 13.5,11 L13.5,11 Z M70.49821,8 C71.326969,8 72,8.674821 72,9.5 C72,10.3287589 71.326969,11 70.49821,11 C69.6712411,11 69,10.3287589 69,9.5 C69,8.674821 69.6712411,8 70.49821,8 L70.49821,8 Z M36,3 L48,3 L48,8 L36,8 L36,3 Z M39.7681214,51 C33.5383776,51 28.0010436,47.9924147 24.4864801,43.3360809 L19.8827324,46.9096839 L18,44.4148673 L22.8021347,40.6815171 C21.3589658,37.9460936 20.5381879,34.8221492 20.5381879,31.4990139 C20.5381879,20.7289001 29.1485769,12 39.7681214,12 C50.389611,12 59,20.7289001 59,31.4990139 C59,42.2730721 50.389611,51 39.7681214,51 L39.7681214,51 Z M51,3 L63,3 L63,8 L51,8 L51,3 Z M66,38 L78,38 L78,43 L66,43 L66,38 Z M75.4991045,11 C74.6716418,11 74,10.327957 74,9.49820789 C74,8.66845878 74.6716418,8 75.4991045,8 C76.3283582,8 77,8.66845878 77,9.49820789 C77,10.327957 76.3283582,11 75.4991045,11 L75.4991045,11 Z" id="Fill-6"></path>
                </g>
                <g id="computer" transform="translate(186.000000, 345.000000)" sketch:type="MSShapeGroup">
                    <path d="M86.9996794,51 L86.9996794,3.40130769 C86.9996794,1.93407692 87.0581002,0 85.5975803,0 L14.6688875,0 C13.2064202,0 13,1.93407692 13,3.40130769 L13,51 L86.9996794,51 L86.9996794,51 Z M14,7 L86,7 L86,50 L14,50 L14,7 Z" id="Fill-7"></path>
                    <path d="M90.6647059,52 L0,52 L0,59 L100,59 L100,52 L90.6647059,52" id="Fill-8"></path>
                </g>
            </g>
        </g>
    </g>
</svg>